<svg xmlns="http://www.w3.org/2000/svg" viewBox="0 0 148.2 63.08"><defs><style>.a{fill:#fff;}.b{isolation:isolate;}</style></defs><circle class="a" cx="81.8" cy="18" r="1.7"/><path class="a" d="M67.1,10.2a4.26,4.26,0,0,1,4.1,3.5l.1.5.4-.4a4.36,4.36,0,0,1,3-1.5A8.63,8.63,0,0,1,86.5,9.8a8.32,8.32,0,0,1,3.8,7.1,9.85,9.85,0,0,1-.2,1.7h6.4l1.6-.3a.85.85,0,0,0,.7-.8V16.4a.77.77,0,0,0-.7-.8l-2-.4a1.28,1.28,0,0,1-1-1,5.73,5.73,0,0,0-.4-1.4,1.28,1.28,0,0,1,.4-1.4l1.5-1.3A.83.83,0,0,0,96.9,9l-.6-1a1,1,0,0,0-1-.4l-1.9.7A1.28,1.28,0,0,1,92,7.9a4.74,4.74,0,0,0-1-1,1.42,1.42,0,0,1-.4-1.4l.7-1.9a.82.82,0,0,0-.4-1l-1-.6a.91.91,0,0,0-1.1.2L87.5,3.7a1.42,1.42,0,0,1-1.4.4,7.37,7.37,0,0,0-1.4-.4,1.28,1.28,0,0,1-1-1l-.4-2a.85.85,0,0,0-.8-.7H81.3a.77.77,0,0,0-.8.7l-.4,2a1.28,1.28,0,0,1-1,1,5.73,5.73,0,0,0-1.4.4,1.24,1.24,0,0,1-1.4-.4L75,2.2A.91.91,0,0,0,73.9,2l-1,.6a1,1,0,0,0-.4,1l.7,1.9a1.28,1.28,0,0,1-.4,1.4,4.74,4.74,0,0,0-1,1,1.24,1.24,0,0,1-1.4.4l-1.9-.7a.82.82,0,0,0-1,.4l-.6,1a1.09,1.09,0,0,0,.2,1.2Z"/><circle class="a" cx="66.5" cy="33.4" r="3.4"/><path class="a" d="M84.5,31.9l-1.7-.3a1.82,1.82,0,0,1-1.4-1.4c-.1-.6-.3-1.1-.4-1.7a1.9,1.9,0,0,1,.5-1.9l1.3-1.1a.91.91,0,0,0,.2-1.1l-.6-1a.82.82,0,0,0-1-.4l-1.6.6a1.9,1.9,0,0,1-1.9-.5l-1.2-1.2a1.9,1.9,0,0,1-.5-1.9l.6-1.6a.82.82,0,0,0-.4-1l-1-.6a.91.91,0,0,0-1.1.2l-1.1,1.3a1.9,1.9,0,0,1-1.9.5,10.46,10.46,0,0,0-1.7-.4A1.82,1.82,0,0,1,68.2,17l-.3-1.7a.85.85,0,0,0-.8-.7H66a.77.77,0,0,0-.8.7L64.8,17a1.82,1.82,0,0,1-1.4,1.4c-.6.1-1.1.3-1.7.4a1.9,1.9,0,0,1-1.9-.5L58.7,17a.91.91,0,0,0-1.1-.2l-1,.6a1,1,0,0,0-.4,1l.6,1.6a1.9,1.9,0,0,1-.5,1.9,13.58,13.58,0,0,0-1.2,1.2,1.9,1.9,0,0,1-1.9.5L51.6,23a.82.82,0,0,0-1,.4l-.6,1a.91.91,0,0,0,.2,1.1l1.3,1.1a1.9,1.9,0,0,1,.5,1.9,10.46,10.46,0,0,0-.4,1.7,1.82,1.82,0,0,1-1.4,1.4l-1.8.4a.85.85,0,0,0-.7.8v1.1a.77.77,0,0,0,.7.8l1.7.3a1.82,1.82,0,0,1,1.4,1.4c.1.6.3,1.1.4,1.7a1.9,1.9,0,0,1-.5,1.9l-1.3,1.1a.91.91,0,0,0-.2,1.1l.6,1a1,1,0,0,0,1,.4l1.6-.6a1.9,1.9,0,0,1,1.9.5,13.58,13.58,0,0,0,1.2,1.2,1.9,1.9,0,0,1,.5,1.9l-.6,1.6a.82.82,0,0,0,.4,1l1,.6a.91.91,0,0,0,1.1-.2l1.1-1.3a1.9,1.9,0,0,1,1.9-.5,10.46,10.46,0,0,0,1.7.4,1.82,1.82,0,0,1,1.4,1.4l.3,1.7a.85.85,0,0,0,.8.7H67a.77.77,0,0,0,.8-.7l.3-1.7a1.82,1.82,0,0,1,1.4-1.4c.6-.1,1.1-.3,1.7-.4a1.9,1.9,0,0,1,1.9.5l1.1,1.3a.91.91,0,0,0,1.1.2l1-.6a1,1,0,0,0,.4-1l-.6-1.6a1.9,1.9,0,0,1,.5-1.9l1.2-1.2a1.9,1.9,0,0,1,1.9-.5l1.6.6a.82.82,0,0,0,1-.4l.6-1a.91.91,0,0,0-.2-1.1L81.4,40a1.9,1.9,0,0,1-.5-1.9,10.46,10.46,0,0,0,.4-1.7A1.82,1.82,0,0,1,82.7,35l1.7-.3a.85.85,0,0,0,.7-.8V32.8A.78.78,0,0,0,84.5,31.9Zm-18,11.7A10.2,10.2,0,1,1,76.7,33.4h0A10.24,10.24,0,0,1,66.5,43.6Z"/><path class="a" d="M0,49.8V21.4H19.9v6.4H7.1v5.6H18.6v6.5H7.1v10Z"/><path class="a" d="M23.9,42.6V28.7q0-7.2,7.2-7.2H41.7L44.9,24v4H31.5a.55.55,0,0,0-.5.3V42.9c0,.2.1.4.3.4H45v4l-3.2,2.5H31.1Q23.9,49.8,23.9,42.6Z"/><path class="a" d="M89.5,49.8V21.4h8.3L105,36.9l7.2-15.5h8.3V49.8h-7.2V34.5l-5.5,11.8H102L96.5,34.5V49.8Z"/><path class="a" d="M127,49.8V21.4h14q7.2,0,7.2,7.2v5.6q0,7.2-7.2,7.2h-6.8v8.4ZM134.2,35h6.5a.55.55,0,0,0,.5-.3V28.5a.55.55,0,0,0-.3-.5h-6.6l-.1,7Z"/><g class="b"><path class="a" d="M45.6,61.6v-3c0-.9.4-1.3,1.3-1.3h2.4l.5.4v.5H47a.37.37,0,0,0-.4.4v3.1a.37.37,0,0,0,.4.4h2V60.5H47.8v-.9H50V63H47C46,62.9,45.6,62.5,45.6,61.6Z"/><path class="a" d="M50.6,62.7l1.7-5.4h1.5l1.7,5.4-.1.2h-.8l-.4-1.2H52l-.4,1.2h-.8Zm1.6-1.9H54l-.8-2.6H53Z"/><path class="a" d="M56.5,62.9V57.3h1.2l1.7,3.6,1.7-3.6h1.2v5.6h-1V59l-1.5,3.2H59L57.5,59v3.9Z"/><path class="a" d="M63.7,62.9V57.3h3.8v.9H64.7v1.4h2.5v.9H64.7V62h2.8v.9Z"/><path class="a" d="M68.6,62.9V57.3h2.7c.9,0,1.3.4,1.3,1.3v1.1c0,.9-.4,1.3-1.3,1.3H69.6v1.9Zm1-2.8h1.7a.37.37,0,0,0,.4-.4V58.5a.37.37,0,0,0-.4-.4H69.6Z"/><path class="a" d="M73.8,62.9V57.3h1V62h2.5v.9Z"/></g><g class="b"><path class="a" d="M77.7,62.7l1.7-5.4h1.5l1.7,5.4-.1.2h-.8l-.4-1.2H79l-.4,1.2h-.8Zm1.6-1.9H81l-.8-2.6H80Z"/></g><g class="b"><path class="a" d="M82.6,57.5l.1-.2h.8l1.3,2.6,1.3-2.6H87l.1.2-1.8,3.4v2h-1v-2Z"/><path class="a" d="M89.9,61.6v-3c0-.9.4-1.3,1.3-1.3h2.2l.5.4v.5H91.2a.37.37,0,0,0-.4.4v3.1a.37.37,0,0,0,.4.4h2.7v.5l-.5.4H91.2C90.3,62.9,89.9,62.5,89.9,61.6Z"/><path class="a" d="M94.9,61.6v-3c0-.9.4-1.3,1.3-1.3h1.9c.9,0,1.3.4,1.3,1.3v3c0,.9-.4,1.3-1.3,1.3H96.2A1.16,1.16,0,0,1,94.9,61.6Zm1,.1a.37.37,0,0,0,.4.4h1.8a.37.37,0,0,0,.4-.4V58.6a.37.37,0,0,0-.4-.4H96.3a.37.37,0,0,0-.4.4Z"/><path class="a" d="M100.7,62.9V57.3h1.2l1.7,3.6,1.7-3.6h1.2v5.6h-1V59L104,62.2h-.9L101.6,59v3.9Z"/><path class="a" d="M108,62.9V57.3h2.7c.9,0,1.3.4,1.3,1.3v1.1c0,.9-.4,1.3-1.3,1.3H109v1.9Zm1-2.8h1.7a.37.37,0,0,0,.4-.4V58.5a.37.37,0,0,0-.4-.4H109Z"/><path class="a" d="M113.1,61.6v-3c0-.9.4-1.3,1.3-1.3h1.9c.9,0,1.3.4,1.3,1.3v3c0,.9-.4,1.3-1.3,1.3h-1.9C113.5,62.9,113.1,62.5,113.1,61.6Zm.9.1a.37.37,0,0,0,.4.4h1.8a.37.37,0,0,0,.4-.4V58.6a.37.37,0,0,0-.4-.4h-1.8a.37.37,0,0,0-.4.4Z"/><path class="a" d="M118.9,62.9V57.3H120l2.5,4v-4h1v5.6h-1.1l-2.5-4v4Z"/><path class="a" d="M124.8,62.9V57.3h3.8v.9h-2.8v1.4h2.5v.9h-2.5V62h2.8v.9Z"/><path class="a" d="M129.7,62.9V57.3h1.1l2.5,4v-4h1v5.6h-1.1l-2.5-4v4Z"/><path class="a" d="M135.2,58.2v-.9h4.5v.9h-1.8v4.7h-1V58.2Z"/><path class="a" d="M140.3,62.6V62h2.5a.37.37,0,0,0,.4-.4V61c0-.2-.1-.3-.3-.4l-1.7-.3c-.6-.1-.9-.6-.9-1.3v-.4c0-.9.4-1.3,1.3-1.3h1.9l.5.4v.5h-2.4a.37.37,0,0,0-.4.4v.5c0,.2.1.3.3.4l1.7.3c.6.1.9.6.9,1.3v.5c0,.9-.4,1.3-1.3,1.3h-2.1Z"/></g><path class="a" d="M42.2,57.4c.2,0,.4,0,.5.2s-.2.3-.3.4-.8.6-.4,1c.6.7,1.3-1.3,1.5-.5a1.43,1.43,0,0,1-1,1.8.85.85,0,0,1-.7,0c-.2,0-.4,0-.5.2l-2.1,2.2a.67.67,0,1,1-1.2-.6l.3-.3,2.2-2.2a.76.76,0,0,0,.2-.4,1.35,1.35,0,0,1,1.1-1.7A.76.76,0,0,1,42.2,57.4Z"/></svg>